<svg width="30" height="31" viewBox="0 0 30 31" fill="none" xmlns="http://www.w3.org/2000/svg">
<g filter="url(#filter0_d_3_2)">
<path d="M24.3468 7.95V7.959C24.3406 7.96537 24.3355 7.97266 24.3315 7.9806C23.9343 8.628 23.5392 9.2755 23.1462 9.9231C22.8378 10.4301 22.5294 10.9341 22.2207 11.4411C22.2146 11.4542 22.2045 11.4651 22.1919 11.4722C22.1794 11.4794 22.1649 11.4824 22.1505 11.481C22.059 11.478 21.9642 11.481 21.8727 11.478C21.8391 11.478 21.8268 11.484 21.8268 11.5206C21.8268 11.8077 21.8238 12.0948 21.8238 12.3789V16.2789C21.8238 17.0059 21.8217 17.7329 21.8175 18.4599C21.8175 18.4935 21.8298 18.5025 21.8604 18.4995C21.9582 18.4965 22.056 18.4995 22.1535 18.4995C22.1664 18.4976 22.1795 18.4999 22.191 18.5059C22.2026 18.5119 22.2119 18.5215 22.2177 18.5331C22.8135 19.5131 23.4081 20.4946 24.0015 21.4776C24.1146 21.6639 24.2307 21.8502 24.3438 22.0365C24.3405 22.0398 24.3498 22.0458 24.3375 22.0458H15.1251C15.1314 22.0365 15.1344 22.0245 15.1404 22.0158C15.3543 21.6645 15.5652 21.3132 15.7788 20.9622C16.2675 20.1558 16.7595 19.3494 17.2488 18.543C17.2531 18.5331 17.2605 18.5248 17.2698 18.5194C17.2791 18.514 17.29 18.5118 17.3007 18.513C17.3985 18.516 17.4993 18.513 17.5968 18.516C17.6397 18.516 17.652 18.507 17.652 18.4641C17.6487 17.8104 17.6457 17.1567 17.6457 16.5063V16.3167H17.6337C16.7601 17.8075 15.8844 19.3012 15.0066 20.7978C14.1148 19.2858 13.227 17.7789 12.3432 16.2771C12.3339 17.0103 12.3339 17.7402 12.3339 18.4671C12.3339 18.4971 12.3402 18.507 12.3708 18.507C12.4716 18.5037 12.5724 18.507 12.6732 18.507C12.6843 18.5059 12.6955 18.5082 12.7053 18.5135C12.7151 18.5189 12.723 18.5271 12.7281 18.537C13.122 19.1907 13.5132 19.8414 13.9071 20.4951C14.2188 21.0144 14.5332 21.5304 14.8449 22.0497H5.6625C5.6532 22.0284 5.6715 22.0131 5.6808 21.9978C5.9556 21.5397 6.2337 21.0816 6.5085 20.6232C6.9285 19.9299 7.3425 19.2366 7.761 18.5433C7.76713 18.5302 7.77718 18.5193 7.78975 18.5122C7.80233 18.505 7.81681 18.502 7.8312 18.5034C7.9212 18.5067 8.0175 18.5004 8.109 18.5067C8.1549 18.5097 8.1672 18.5004 8.1672 18.4485V11.5119C8.1702 11.4843 8.1609 11.475 8.1303 11.475C8.0295 11.4783 7.929 11.475 7.8282 11.475C7.81615 11.4766 7.80392 11.4741 7.7934 11.4681C7.78287 11.462 7.77465 11.4526 7.77 11.4414C7.6968 11.3193 7.6233 11.2014 7.5501 11.0781C7.0032 10.1781 6.4506 9.2667 5.8977 8.3565C5.8182 8.2221 5.7357 8.0865 5.6532 7.9503H11.8722C11.8865 7.94936 11.9007 7.95299 11.9127 7.96064C11.9248 7.9683 11.9342 7.97959 11.9394 7.9929C12.8312 9.5173 13.7241 11.043 14.6181 12.57C14.7435 12.7839 14.8716 13.0008 14.997 13.2177C15.006 13.2024 15.0153 13.1901 15.0243 13.1748C15.336 12.6435 15.6477 12.1089 15.9621 11.5773C16.6621 10.3829 17.3621 9.1876 18.0621 7.9914C18.0683 7.97836 18.0783 7.96755 18.0909 7.96046C18.1035 7.95337 18.1179 7.95034 18.1323 7.9518L24.3468 7.95ZM15.006 18.8487C16.2186 16.7867 17.4272 14.731 18.6318 12.6816C18.639 12.6958 18.6423 12.7116 18.6411 12.7275C18.6411 13.9035 18.6421 15.0795 18.6441 16.2555C18.6441 16.7442 18.6411 17.2329 18.6471 17.7255C18.6531 18.2955 18.6471 18.8655 18.6501 19.4355C18.6501 19.4721 18.6411 19.4844 18.6042 19.4844C18.3642 19.4811 18.1218 19.4844 17.8803 19.4811C17.8667 19.4798 17.853 19.4826 17.841 19.4892C17.829 19.4958 17.8193 19.5058 17.8131 19.518C17.5177 20.0096 17.2225 20.5012 16.9275 20.9928C16.9182 21.0051 16.9059 21.0174 16.9092 21.0357H22.5966C22.5873 21.0204 22.5813 21.0081 22.575 20.9961C22.2849 20.5041 21.9918 20.0124 21.7017 19.5177C21.696 19.5049 21.6865 19.4942 21.6744 19.4871C21.6624 19.4799 21.6484 19.4767 21.6345 19.4778C21.396 19.4778 21.1578 19.4778 20.9226 19.4808C20.883 19.4808 20.8737 19.4688 20.8737 19.4322V13.494C20.8737 13.3782 20.8737 13.2621 20.8707 13.146C20.8677 12.276 20.8767 11.4018 20.8647 10.5312C20.8647 10.4916 20.8767 10.4823 20.9166 10.4823C21.1488 10.4823 21.3807 10.4823 21.6099 10.4856C21.6266 10.487 21.6434 10.4833 21.6581 10.4752C21.6728 10.467 21.6847 10.4547 21.6924 10.4397C21.9888 9.9417 22.2849 9.447 22.5783 8.949C22.5843 8.94 22.5966 8.9307 22.5873 8.9154H18.7386C18.7198 8.91436 18.7011 8.91906 18.6851 8.92886C18.669 8.93866 18.6563 8.95311 18.6486 8.9703C18.1386 9.8379 17.6275 10.7054 17.1153 11.5728C16.4829 12.645 15.8516 13.7161 15.2214 14.7861C15.1512 14.9061 15.081 15.0213 15.0075 15.1437C14.9955 15.1251 14.9892 15.1137 14.9802 15.0978C14.6595 14.5539 14.3418 14.0073 14.0202 13.4637C13.1402 11.9607 12.2595 10.4589 11.3781 8.9583C11.3729 8.94494 11.3636 8.93358 11.3515 8.92587C11.3394 8.91815 11.3252 8.91449 11.3109 8.9154H7.4523C7.44 8.9154 7.428 8.9094 7.4157 8.9217C7.41918 8.93009 7.4233 8.93822 7.428 8.946C7.7304 9.447 8.0328 9.95 8.3352 10.455C8.34101 10.4657 8.34973 10.4745 8.36035 10.4805C8.37096 10.4864 8.38305 10.4892 8.3952 10.4886C8.6304 10.4886 8.8656 10.4886 9.0978 10.4856C9.1407 10.4856 9.1497 10.4976 9.1497 10.5375C9.1497 11.8081 9.1507 13.0787 9.1527 14.3493C9.1527 14.6334 9.156 14.9193 9.156 15.2046V19.44C9.156 19.4766 9.1467 19.4859 9.1101 19.4859C8.8719 19.4829 8.6334 19.4859 8.3982 19.4859C8.38534 19.4838 8.37216 19.4859 8.36063 19.492C8.3491 19.4981 8.33986 19.5077 8.3343 19.5195C8.0319 20.0172 7.7325 20.5152 7.4301 21.0099C7.4241 21.0192 7.4118 21.0285 7.4178 21.0399H13.1154C13.113 21.0325 13.1099 21.0254 13.1061 21.0186C12.7977 20.5146 12.4903 20.0096 12.1839 19.5036C12.1686 19.476 12.147 19.476 12.1197 19.476H11.4261C11.3835 19.476 11.3682 19.467 11.3682 19.4211C11.3712 18.8865 11.3712 18.3519 11.3712 17.8143C11.3742 17.1669 11.3712 16.5162 11.3742 15.8688C11.3805 14.8578 11.3775 13.8435 11.3775 12.8325V12.6798C11.3805 12.6798 11.3835 12.6768 11.3865 12.6768C12.5901 14.7306 13.7966 16.7879 15.006 18.8487Z" fill="#020202"/>
<path d="M15.006 18.8487C13.7964 16.7867 12.5909 14.729 11.3895 12.6756C11.3865 12.6756 11.3835 12.6786 11.3805 12.6786V12.8313C11.3805 13.8423 11.3835 14.8563 11.3775 15.8676C11.3742 16.515 11.3775 17.1657 11.3742 17.8131C11.3712 18.3477 11.3742 18.8823 11.3712 19.4199C11.3712 19.4658 11.3835 19.4748 11.4294 19.4748C11.6613 19.4718 11.8935 19.4748 12.1227 19.4748C12.1349 19.473 12.1474 19.4747 12.1587 19.4796C12.17 19.4844 12.1798 19.4923 12.1869 19.5024C12.4923 20.0064 12.7998 20.5114 13.1094 21.0174C13.113 21.0243 13.116 21.0314 13.1184 21.0387H7.42172C7.41572 21.0264 7.42802 21.0174 7.43402 21.0087C7.73642 20.511 8.03882 20.016 8.33822 19.5183C8.34379 19.5065 8.35308 19.4968 8.36467 19.4907C8.37626 19.4847 8.38952 19.4825 8.40242 19.4847H9.11402C9.15062 19.4847 9.15992 19.4754 9.15992 19.4388V15.2016C9.15992 14.9175 9.15992 14.6316 9.15692 14.3463C9.15352 13.0759 9.15242 11.8052 9.15362 10.5342C9.15362 10.4916 9.14462 10.4823 9.10172 10.4823C8.86652 10.4856 8.63132 10.4823 8.39912 10.4856C8.38688 10.4868 8.37456 10.4843 8.36383 10.4783C8.35309 10.4722 8.34447 10.4631 8.33912 10.452C8.03672 9.948 7.73432 9.447 7.43192 8.943C7.42663 8.93545 7.42249 8.92716 7.41962 8.9184C7.43192 8.9064 7.44422 8.9124 7.45622 8.9124H11.3142C11.3285 8.91149 11.3427 8.91516 11.3548 8.92287C11.3669 8.93059 11.3762 8.94195 11.3814 8.9553C12.2614 10.4581 13.1421 11.9598 14.0235 13.4604C14.3442 14.0043 14.6619 14.5509 14.9835 15.0948C14.9925 15.1068 14.9988 15.1221 15.0111 15.1404C15.0843 15.0183 15.1545 14.9004 15.2247 14.7831C15.8571 13.7109 16.4884 12.6398 17.1186 11.5698C17.6286 10.7022 18.1397 9.8347 18.6519 8.9673C18.6593 8.94954 18.6723 8.93462 18.6888 8.92474C18.7053 8.91486 18.7246 8.91053 18.7437 8.9124H22.59C22.5963 8.9277 22.587 8.9367 22.581 8.946C22.2846 9.444 21.9885 9.9387 21.6951 10.4367C21.6877 10.4519 21.6759 10.4644 21.6611 10.4726C21.6463 10.4807 21.6294 10.4841 21.6126 10.4823C21.3804 10.4793 21.1485 10.4823 20.9193 10.4793C20.8827 10.4793 20.8674 10.4886 20.8674 10.5282C20.8797 11.3982 20.8704 12.2724 20.8734 13.143C20.8734 13.2588 20.8764 13.3749 20.8764 13.491V18.1857C20.8764 18.6012 20.8797 19.0137 20.8764 19.4289C20.8764 19.4688 20.8857 19.4778 20.9253 19.4778C21.1653 19.4748 21.402 19.4778 21.6372 19.4748C21.6512 19.4735 21.6652 19.4766 21.6773 19.4837C21.6893 19.4908 21.6988 19.5015 21.7044 19.5144C21.9944 20.0064 22.2856 20.4992 22.578 20.9928C22.584 21.0051 22.59 21.0174 22.5993 21.0327H16.9122C16.9092 21.0144 16.9242 21.0027 16.9305 20.9898C17.2265 20.4982 17.5217 20.0064 17.8161 19.5144C17.8221 19.502 17.8318 19.4919 17.8438 19.4853C17.8559 19.4787 17.8697 19.4761 17.8833 19.4778C18.1233 19.4778 18.366 19.4778 18.6075 19.4808C18.6441 19.4808 18.6531 19.4688 18.6531 19.4322C18.6531 18.8622 18.6561 18.2922 18.6501 17.7222C18.6441 17.2335 18.6471 16.7418 18.6471 16.2522C18.6441 15.0766 18.6431 13.9007 18.6441 12.7245C18.6453 12.7086 18.6421 12.6928 18.6348 12.6786C17.4252 14.7372 16.2152 16.7939 15.0048 18.8487H15.006Z" fill="white"/>
</g>
<defs>
<filter id="filter0_d_3_2" x="-4" y="0" width="38" height="38" filterUnits="userSpaceOnUse" color-interpolation-filters="sRGB">
<feFlood flood-opacity="0" result="BackgroundImageFix"/>
<feColorMatrix in="SourceAlpha" type="matrix" values="0 0 0 0 0 0 0 0 0 0 0 0 0 0 0 0 0 0 127 0" result="hardAlpha"/>
<feOffset dy="4"/>
<feGaussianBlur stdDeviation="2"/>
<feComposite in2="hardAlpha" operator="out"/>
<feColorMatrix type="matrix" values="0 0 0 0 0 0 0 0 0 0 0 0 0 0 0 0 0 0 0.25 0"/>
<feBlend mode="normal" in2="BackgroundImageFix" result="effect1_dropShadow_3_2"/>
<feBlend mode="normal" in="SourceGraphic" in2="effect1_dropShadow_3_2" result="shape"/>
</filter>
</defs>
</svg>
